<svg width="91" height="24" viewBox="0 0 91 24" fill="none" xmlns="http://www.w3.org/2000/svg">
<path d="M0.729687 23.2773H4.15156V16.9375H4.3625C4.58125 17.4062 4.87812 17.8086 5.25312 18.1445C5.63594 18.4805 6.07734 18.7422 6.57734 18.9297C7.08516 19.1094 7.63594 19.1992 8.22969 19.1992C9.31562 19.1992 10.2492 18.9336 11.0305 18.4023C11.8117 17.8711 12.4133 17.1094 12.8352 16.1172C13.257 15.125 13.468 13.9375 13.468 12.5547V12.5312C13.468 11.1562 13.2531 9.97656 12.8234 8.99219C12.4016 8 11.8 7.23438 11.0187 6.69531C10.2375 6.15625 9.30781 5.88672 8.22969 5.88672C7.62031 5.88672 7.06562 5.97656 6.56562 6.15625C6.06562 6.32812 5.62812 6.57812 5.25312 6.90625C4.88594 7.23438 4.58906 7.62891 4.3625 8.08984H4.15156V6.09766H0.729687V23.2773ZM7.05781 16.3633C6.46406 16.3633 5.94453 16.2109 5.49922 15.9062C5.06172 15.6016 4.72187 15.1641 4.47969 14.5938C4.2375 14.0156 4.11641 13.3359 4.11641 12.5547V12.5312C4.11641 11.7344 4.23359 11.0547 4.46797 10.4922C4.71016 9.92188 5.05 9.48438 5.4875 9.17969C5.93281 8.875 6.45625 8.72266 7.05781 8.72266C7.66719 8.72266 8.18672 8.875 8.61641 9.17969C9.05391 9.48438 9.38984 9.92188 9.62422 10.4922C9.86641 11.0625 9.9875 11.7422 9.9875 12.5312V12.5547C9.9875 13.3438 9.86641 14.0234 9.62422 14.5938C9.38984 15.1641 9.05391 15.6016 8.61641 15.9062C8.18672 16.2109 7.66719 16.3633 7.05781 16.3633ZM19.9344 19.1992C20.4969 19.1992 21.0164 19.125 21.493 18.9766C21.9773 18.8203 22.3992 18.6016 22.7586 18.3203C23.1258 18.0312 23.4187 17.6875 23.6375 17.2891H23.8484V19H27.2234V10.1875C27.2234 9.27344 27.0125 8.49219 26.5906 7.84375C26.1766 7.1875 25.5711 6.6875 24.7742 6.34375C23.9773 5.99219 23.0086 5.81641 21.868 5.81641C20.7898 5.81641 19.8406 5.97266 19.0203 6.28516C18.2078 6.59766 17.5594 7.03516 17.075 7.59766C16.5984 8.16016 16.3133 8.82031 16.2195 9.57812L16.2078 9.68359H19.3719L19.3953 9.63672C19.5281 9.25391 19.7859 8.96094 20.1687 8.75781C20.5594 8.54688 21.0633 8.44141 21.6805 8.44141C22.3836 8.44141 22.9187 8.59375 23.2859 8.89844C23.6609 9.19531 23.8484 9.625 23.8484 10.1875V14.3008C23.8484 14.7539 23.7273 15.1641 23.4852 15.5312C23.243 15.8906 22.9148 16.1758 22.5008 16.3867C22.0867 16.5977 21.6141 16.7031 21.0828 16.7031C20.4891 16.7031 20.0047 16.5625 19.6297 16.2812C19.2547 16 19.0672 15.6133 19.0672 15.1211V15.0977C19.0672 14.6289 19.2469 14.2578 19.6062 13.9844C19.9656 13.7109 20.5125 13.5547 21.2469 13.5156L25.5359 13.2344V11.1484L20.7312 11.4414C19.1297 11.5352 17.8953 11.9141 17.0281 12.5781C16.1609 13.2344 15.7273 14.1445 15.7273 15.3086V15.332C15.7273 16.1133 15.907 16.7969 16.2664 17.3828C16.6258 17.9609 17.1219 18.4102 17.7547 18.7305C18.3953 19.043 19.1219 19.1992 19.9344 19.1992ZM30.725 19H34.1469V11.5352C34.1469 10.9492 34.2484 10.4414 34.4516 10.0117C34.6625 9.58203 34.9555 9.25 35.3305 9.01562C35.7133 8.77344 36.1664 8.65234 36.6898 8.65234C37.5023 8.65234 38.1 8.88672 38.4828 9.35547C38.8656 9.82422 39.057 10.5156 39.057 11.4297V19H42.4789V10.6562C42.4789 9.10938 42.1 7.91797 41.3422 7.08203C40.5922 6.23828 39.4984 5.81641 38.0609 5.81641C37.1391 5.81641 36.3656 6.01953 35.7406 6.42578C35.1156 6.83203 34.6547 7.38672 34.3578 8.08984H34.1469V6.09766H30.725V19ZM51.6172 19.2695C52.5625 19.2695 53.3789 19.1523 54.0664 18.918C54.7617 18.6758 55.3398 18.3633 55.8008 17.9805C56.2695 17.5977 56.6367 17.1875 56.9023 16.75C57.168 16.3047 57.3516 15.8789 57.4531 15.4727L57.4766 15.3555H54.2891L54.2539 15.4258C54.1758 15.5898 54.0273 15.7734 53.8086 15.9766C53.5977 16.1719 53.3164 16.3438 52.9648 16.4922C52.6133 16.6406 52.1875 16.7148 51.6875 16.7148C51.0703 16.7148 50.5391 16.5781 50.0938 16.3047C49.6484 16.0312 49.3047 15.6367 49.0625 15.1211C48.8203 14.6055 48.6992 13.9844 48.6992 13.2578V11.875C48.6992 11.125 48.8203 10.4922 49.0625 9.97656C49.3125 9.45312 49.6484 9.05859 50.0703 8.79297C50.5 8.51953 50.9883 8.38281 51.5352 8.38281C52.0898 8.38281 52.5742 8.51562 52.9883 8.78125C53.4102 9.03906 53.7383 9.42578 53.9727 9.94141C54.2148 10.457 54.3359 11.1016 54.3359 11.875V13.2461L55.9414 11.2188H47.0234V13.3633H57.582V12.2969C57.582 10.9922 57.3359 9.85547 56.8438 8.88672C56.3516 7.91797 55.6484 7.16406 54.7344 6.625C53.8203 6.08594 52.7344 5.81641 51.4766 5.81641C50.2266 5.81641 49.1367 6.09375 48.207 6.64844C47.2852 7.20312 46.5703 7.98438 46.0625 8.99219C45.5625 10 45.3125 11.1875 45.3125 12.5547V12.5664C45.3125 13.9492 45.5664 15.1406 46.0742 16.1406C46.582 17.1406 47.3047 17.9141 48.2422 18.4609C49.1875 19 50.3125 19.2695 51.6172 19.2695ZM60.65 19H64.0719V1.16406H60.65V19Z" fill="#323F4B"/>
<path d="M67.7844 19H71.2063V6.09766H67.7844V19ZM69.507 4.11719C70.0383 4.11719 70.4914 3.93359 70.8664 3.56641C71.2414 3.19141 71.4289 2.74219 71.4289 2.21875C71.4289 1.6875 71.2414 1.23828 70.8664 0.871094C70.4914 0.496094 70.0383 0.308594 69.507 0.308594C68.9836 0.308594 68.5305 0.496094 68.1477 0.871094C67.7648 1.23828 67.5734 1.6875 67.5734 2.21875C67.5734 2.74219 67.7648 3.19141 68.1477 3.56641C68.5305 3.93359 68.9836 4.11719 69.507 4.11719ZM82.5359 19.4336C84.2 19.4336 85.6414 19.0742 86.8602 18.3555C88.0789 17.6289 89.0164 16.6016 89.6727 15.2734C90.3367 13.9453 90.6687 12.3711 90.6687 10.5508V10.5273C90.6687 8.70703 90.3367 7.13281 89.6727 5.80469C89.0086 4.47656 88.0672 3.45312 86.8484 2.73438C85.6375 2.01563 84.2 1.65625 82.5359 1.65625C80.8797 1.65625 79.4422 2.01563 78.2234 2.73438C77.0047 3.45312 76.0594 4.47656 75.3875 5.80469C74.7234 7.125 74.3914 8.69922 74.3914 10.5273V10.5508C74.3914 12.3711 74.7195 13.9453 75.3758 15.2734C76.0398 16.6016 76.9812 17.6289 78.2 18.3555C79.4187 19.0742 80.8641 19.4336 82.5359 19.4336ZM82.5359 16.4336C81.6062 16.4336 80.8016 16.1914 80.1219 15.707C79.45 15.2227 78.9266 14.5391 78.5516 13.6562C78.1844 12.7734 78.0008 11.7383 78.0008 10.5508V10.5273C78.0008 9.33203 78.1883 8.29688 78.5633 7.42188C78.9383 6.53906 79.4656 5.85938 80.1453 5.38281C80.825 4.89844 81.6219 4.65625 82.5359 4.65625C83.45 4.65625 84.2469 4.89844 84.9266 5.38281C85.6062 5.85938 86.1297 6.53906 86.4969 7.42188C86.8719 8.29688 87.0594 9.33203 87.0594 10.5273V10.5508C87.0594 11.7383 86.8719 12.7734 86.4969 13.6562C86.1297 14.5391 85.6062 15.2227 84.9266 15.707C84.2469 16.1914 83.45 16.4336 82.5359 16.4336ZM86.825 20.6758H90.118L84.6805 13.4336H81.3875L86.825 20.6758Z" fill="#9B51E0"/>
</svg>
