<svg width="162" height="125" viewBox="0 0 162 125" fill="none" xmlns="http://www.w3.org/2000/svg">
<mask id="mask0_1183_74" style="mask-type:alpha" maskUnits="userSpaceOnUse" x="0" y="0" width="162" height="125">
<rect x="0.5" width="161" height="125" rx="20" fill="url(#paint0_linear_1183_74)"/>
</mask>
<g mask="url(#mask0_1183_74)">
<path opacity="0.1" d="M18.8624 111.744C20.7537 113.433 23.6511 113.515 25.6427 111.951L134.394 26.5652C135.894 25.3879 136.578 23.5033 136.166 21.6868C135.754 19.8707 134.315 18.4293 132.441 17.9562L111.299 12.6183L147.954 -21.8735C149.278 -23.1193 149.802 -24.9513 149.326 -26.671C148.851 -28.3905 147.449 -29.7325 145.655 -30.1854L85.8173 -45.293C83.5272 -45.8712 81.121 -44.8791 79.9829 -42.8878L38.9458 28.9121C38.1831 30.2468 38.1037 31.8441 38.7302 33.2421C39.3569 34.6406 40.62 35.684 42.1545 36.0714L64.8886 41.8112L18.1644 105.272C16.6762 107.293 16.9745 110.058 18.8624 111.744Z" fill="white"/>
</g>
<defs>
<linearGradient id="paint0_linear_1183_74" x1="81" y1="-2.4655e-05" x2="5.72692" y2="1.02999" gradientUnits="userSpaceOnUse">
<stop stop-color="#57AEFE"/>
<stop offset="1" stop-color="#6B71FF"/>
</linearGradient>
</defs>
</svg>
